<svg width="232" height="52" viewBox="0 0 232 52" fill="none" xmlns="http://www.w3.org/2000/svg">
<g opacity="0.5">
<path d="M38.2888 29.6197L38.5589 29.8932L21.5516 12.9509C21.2014 12.5964 20.5812 12.5762 20.171 12.9002L14.4385 17.3156C14.0183 17.6396 13.9783 18.1966 14.3285 18.551L21.1414 25.0626C21.5016 25.4171 22.1318 25.4373 22.542 25.1133L22.552 25.1031C22.9622 24.7791 23.5925 24.7993 23.9526 25.1538L32.3563 33.3869C32.7164 33.7414 32.6764 34.2984 32.2662 34.6224L22.9422 42.1163C22.522 42.4505 21.8917 42.4302 21.5216 42.0758L6.325 27.1386C5.97485 26.7842 5.35458 26.764 4.9344 27.088L0.352416 30.6223C-0.0677657 30.9464 -0.117787 31.5033 0.232364 31.8578L21.1114 51.7166C21.1114 51.7166 21.8517 52.4052 22.8421 51.6356L42.6507 35.0376C43.0509 34.7136 43.0909 34.1566 42.7207 33.8021L38.2888 29.6197ZM43.7412 21.1739L22.6821 0.25176C22.532 0.130238 21.8817 -0.305218 21.0514 0.363156L0.36242 16.7788C-0.0577613 17.1029 -0.117787 17.6599 0.242368 18.0143L4.4742 22.2372L21.6516 38.9567C22.0218 39.3112 22.6621 39.3314 23.0822 38.9972L28.1044 35.068L28.0744 35.0376L28.8447 34.43C29.2649 34.1059 29.3049 33.549 28.9348 33.1945L23.2223 27.6855C22.8622 27.3311 22.2219 27.3108 21.8017 27.6349L21.7917 27.645C21.3715 27.9691 20.7412 27.9589 20.3711 27.6045L10.907 18.308C10.5468 17.9536 10.5968 17.4067 11.017 17.0725L20.241 9.8318C20.6512 9.50774 21.2715 9.52799 21.6316 9.88243L37.6786 25.9842C38.0487 26.3386 38.679 26.3589 39.0892 26.0348L43.6712 22.4094C44.0813 22.0853 44.1113 21.5284 43.7412 21.1739V21.1739Z" fill="#AB8A63"/>
</g>
<path d="M68.8055 16.9067C69.7399 16.9067 70.5937 17.0356 71.3669 17.2933C72.1401 17.5511 72.7926 17.8491 73.3242 18.1874V21.4978C72.7442 21.1434 72.124 20.8132 71.4636 20.5071C70.8031 20.201 70.054 20.048 69.2163 20.048C68.7975 20.048 68.3787 20.1124 67.9598 20.2413C67.5571 20.3702 67.2188 20.5635 66.9449 20.8212C66.6872 21.079 66.5583 21.4092 66.5583 21.812C66.5583 22.3436 66.7919 22.7463 67.2591 23.0202C67.7262 23.294 68.2981 23.5679 68.9747 23.8417L70.9561 24.6633C72.0838 25.1466 72.9134 25.7346 73.445 26.4272C73.9766 27.1199 74.2424 27.9093 74.2424 28.7953C74.2424 29.7619 73.9605 30.6156 73.3967 31.3567C72.849 32.0816 72.1079 32.6535 71.1736 33.0723C70.2554 33.4911 69.2324 33.7005 68.1048 33.7005C67.1544 33.7005 66.2442 33.5395 65.3743 33.2173C64.5044 32.8951 63.7473 32.5004 63.1029 32.0332V28.7228C63.8117 29.2383 64.593 29.6733 65.4468 30.0277C66.3006 30.3821 67.2107 30.5593 68.1773 30.5593C68.8539 30.5593 69.4338 30.4304 69.9171 30.1726C70.4004 29.8988 70.642 29.496 70.642 28.9644C70.642 28.5456 70.4406 28.2073 70.0379 27.9496C69.6513 27.6757 69.2244 27.4502 68.7572 27.273L66.2683 26.3064C65.0118 25.8232 64.158 25.1949 63.707 24.4217C63.272 23.6323 63.0546 22.7624 63.0546 21.812C63.0546 20.8293 63.3204 19.9755 63.852 19.2506C64.3997 18.5096 65.1085 17.9377 65.9784 17.535C66.8483 17.1161 67.7907 16.9067 68.8055 16.9067ZM86.3243 30.3901V33.4106H77.5045V30.3901H80.235V20.2413H77.5045V17.2208H86.3243V20.2413H83.5938V30.3901H86.3243ZM107.081 17.1V33.4106H103.722V23.5518L99.566 28.0946H98.5995L94.395 23.5518V33.4106H91.0362V17.1H92.1719L99.0828 24.3008L105.945 17.1H107.081ZM118.486 17.2208C119.243 17.2208 119.984 17.3497 120.709 17.6075C121.434 17.8652 122.087 18.2438 122.667 18.7432C123.263 19.2425 123.73 19.8466 124.068 20.5554C124.423 21.2481 124.6 22.0455 124.6 22.9477C124.6 24.0431 124.318 25.0177 123.754 25.8715C123.206 26.7092 122.473 27.3696 121.555 27.8529C120.637 28.3362 119.638 28.5778 118.559 28.5778C117.834 28.5778 117.181 28.5053 116.602 28.3604C116.022 28.2154 115.538 28.0462 115.152 27.8529V33.4106H111.793V17.2208H118.486ZM115.152 20.3621V25.1466C115.506 25.2916 115.933 25.4204 116.432 25.5332C116.948 25.6298 117.471 25.6782 118.003 25.6782C118.97 25.6782 119.735 25.4124 120.299 24.8808C120.879 24.3331 121.168 23.6887 121.168 22.9477C121.168 22.0939 120.846 21.4495 120.202 21.0146C119.558 20.5796 118.8 20.3621 117.931 20.3621H115.152ZM131.341 17.2208V30.3901H139.436V33.4106H127.983V17.2208H131.341ZM153.886 23.7934V26.5239H146.734V30.4384H154.829V33.4106H143.375V17.2208H154.829V20.1205H146.734V23.7934H153.886ZM163.6 16.9067C164.534 16.9067 165.388 17.0356 166.161 17.2933C166.935 17.5511 167.587 17.8491 168.119 18.1874V21.4978C167.539 21.1434 166.919 20.8132 166.258 20.5071C165.598 20.201 164.849 20.048 164.011 20.048C163.592 20.048 163.173 20.1124 162.754 20.2413C162.352 20.3702 162.013 20.5635 161.739 20.8212C161.482 21.079 161.353 21.4092 161.353 21.812C161.353 22.3436 161.586 22.7463 162.054 23.0202C162.521 23.294 163.093 23.5679 163.769 23.8417L165.751 24.6633C166.878 25.1466 167.708 25.7346 168.24 26.4272C168.771 27.1199 169.037 27.9093 169.037 28.7953C169.037 29.7619 168.755 30.6156 168.191 31.3567C167.643 32.0816 166.902 32.6535 165.968 33.0723C165.05 33.4911 164.027 33.7005 162.899 33.7005C161.949 33.7005 161.039 33.5395 160.169 33.2173C159.299 32.8951 158.542 32.5004 157.897 32.0332V28.7228C158.606 29.2383 159.388 29.6733 160.241 30.0277C161.095 30.3821 162.005 30.5593 162.972 30.5593C163.648 30.5593 164.228 30.4304 164.712 30.1726C165.195 29.8988 165.437 29.496 165.437 28.9644C165.437 28.5456 165.235 28.2073 164.832 27.9496C164.446 27.6757 164.019 27.4502 163.552 27.273L161.063 26.3064C159.806 25.8232 158.953 25.1949 158.502 24.4217C158.067 23.6323 157.849 22.7624 157.849 21.812C157.849 20.8293 158.115 19.9755 158.647 19.2506C159.194 18.5096 159.903 17.9377 160.773 17.535C161.643 17.1161 162.585 16.9067 163.6 16.9067ZM175.779 17.2208V24.47L181.94 17.2208H186.193L179.838 24.3008L186.918 33.4106H182.52L177.543 26.8622L175.779 28.8436V33.4106H172.42V17.2208H175.779ZM198.396 30.3901V33.4106H189.576V30.3901H192.307V20.2413H189.576V17.2208H198.396V20.2413H195.665V30.3901H198.396ZM206.467 17.2208V30.3901H214.562V33.4106H203.108V17.2208H206.467ZM221.859 17.2208V30.3901H229.954V33.4106H218.5V17.2208H221.859Z" fill="#1C2A2C"/>
</svg>
