<svg width="143" height="146" viewBox="0 0 143 146" fill="none" xmlns="http://www.w3.org/2000/svg">
<rect x="0.232178" y="100.054" width="142.208" height="45.9147" rx="12.7541" fill="#A8C4C8"/>
<rect x="0.232178" y="0.412598" width="142.208" height="142.208" rx="12.7541" fill="#FCFAF5"/>
<g opacity="0.5">
<path d="M92.6754 77.5137L93.0295 77.8679L70.7335 55.926C70.2745 55.4669 69.4614 55.4407 68.9236 55.8604L61.4086 61.5786C60.8577 61.9983 60.8053 62.7197 61.2643 63.1787L70.1958 71.6119C70.668 72.0709 71.4942 72.0971 72.032 71.6774L72.0451 71.6643C72.5828 71.2446 73.4091 71.2709 73.8812 71.7299L84.8981 82.3926C85.3702 82.8517 85.3178 83.573 84.78 83.9927L72.5566 93.698C72.0057 94.1308 71.1795 94.1046 70.6942 93.6456L50.7721 74.3005C50.313 73.8415 49.4999 73.8152 48.949 74.2349L42.9422 78.8121C42.3914 79.2318 42.3258 79.9532 42.7848 80.4122L70.1565 106.131C70.1565 106.131 71.127 107.023 72.4254 106.026L98.3937 84.5304C98.9183 84.1107 98.9708 83.3894 98.4855 82.9304L92.6754 77.5137ZM99.8233 66.5756L72.2156 39.4794C72.0188 39.322 71.1663 38.758 70.0778 39.6236L42.9553 60.8835C42.4045 61.3032 42.3258 62.0246 42.798 62.4836L48.3457 67.9527L70.8647 89.606C71.35 90.0651 72.1893 90.0913 72.7402 89.6585L79.3241 84.5698L79.2847 84.5304L80.2946 83.7435C80.8454 83.3238 80.8979 82.6025 80.4126 82.1434L72.9238 75.0087C72.4516 74.5497 71.6123 74.5234 71.0614 74.9431L71.0483 74.9563C70.4975 75.3759 69.6712 75.3628 69.1859 74.9038L56.7789 62.8639C56.3067 62.4049 56.3723 61.6967 56.9231 61.2639L69.0154 51.8864C69.5532 51.4668 70.3663 51.493 70.8385 51.952L91.8754 72.8053C92.3607 73.2644 93.1869 73.2906 93.7247 72.8709L99.7315 68.1756C100.269 67.756 100.309 67.0346 99.8233 66.5756V66.5756Z" fill="url(#paint0_linear_331_270)"/>
</g>
<path d="M20.392 67.7727C21.0094 67.7727 21.5735 67.8579 22.0845 68.0282C22.5954 68.1985 23.0265 68.3955 23.3778 68.619V70.8065C22.9946 70.5723 22.5848 70.3541 22.1484 70.1518C21.7119 69.9496 21.2169 69.8485 20.6634 69.8485C20.3867 69.8485 20.1099 69.891 19.8331 69.9762C19.567 70.0613 19.3435 70.1891 19.1625 70.3594C18.9922 70.5297 18.907 70.7479 18.907 71.014C18.907 71.3653 19.0614 71.6314 19.3701 71.8124C19.6788 71.9934 20.0567 72.1743 20.5038 72.3553L21.813 72.8982C22.5582 73.2175 23.1064 73.606 23.4577 74.0637C23.8089 74.5215 23.9846 75.0431 23.9846 75.6285C23.9846 76.2672 23.7983 76.8314 23.4257 77.321C23.0638 77.8 22.5741 78.1779 21.9568 78.4547C21.35 78.7314 20.6741 78.8698 19.9289 78.8698C19.3009 78.8698 18.6995 78.7634 18.1247 78.5505C17.5498 78.3376 17.0495 78.0768 16.6238 77.7681V75.5806C17.0921 75.9212 17.6084 76.2087 18.1726 76.4428C18.7367 76.677 19.3382 76.7941 19.9768 76.7941C20.4239 76.7941 20.8071 76.709 21.1265 76.5386C21.4458 76.3577 21.6055 76.0916 21.6055 75.7403C21.6055 75.4635 21.4724 75.24 21.2063 75.0697C20.9508 74.8887 20.6687 74.7397 20.36 74.6226L18.7154 73.9839C17.8852 73.6646 17.321 73.2494 17.0229 72.7385C16.7355 72.2169 16.5918 71.6421 16.5918 71.014C16.5918 70.3647 16.7675 69.8006 17.1187 69.3215C17.4807 68.8319 17.949 68.454 18.5238 68.1879C19.0987 67.9111 19.7214 67.7727 20.392 67.7727ZM31.9681 76.6823V78.6782H26.1401V76.6823H27.9444V69.9762H26.1401V67.9803H31.9681V69.9762H30.1638V76.6823H31.9681ZM45.6838 67.9005V78.6782H43.4643V72.1637L40.718 75.1655H40.0793L37.3011 72.1637V78.6782H35.0817V67.9005H35.8321L40.3987 72.6587L44.9333 67.9005H45.6838ZM53.2202 67.9803C53.7205 67.9803 54.2102 68.0655 54.6892 68.2358C55.1682 68.4061 55.5993 68.6562 55.9825 68.9862C56.3764 69.3162 56.6851 69.7154 56.9086 70.1838C57.1428 70.6415 57.2599 71.1684 57.2599 71.7645C57.2599 72.4883 57.0736 73.1323 56.701 73.6965C56.3391 74.25 55.8548 74.6865 55.248 75.0058C54.6413 75.3251 53.9813 75.4848 53.2681 75.4848C52.7891 75.4848 52.358 75.4369 51.9748 75.3411C51.5916 75.2453 51.2722 75.1335 51.0168 75.0058V78.6782H48.7973V67.9803H53.2202ZM51.0168 70.056V73.2175C51.2509 73.3133 51.533 73.3985 51.863 73.473C52.2036 73.5368 52.5496 73.5688 52.9009 73.5688C53.5395 73.5688 54.0452 73.3931 54.4177 73.0419C54.8009 72.6799 54.9925 72.2542 54.9925 71.7645C54.9925 71.2003 54.7797 70.7745 54.3539 70.4871C53.9281 70.1997 53.4278 70.056 52.853 70.056H51.0168ZM61.7147 67.9803V76.6823H67.0636V78.6782H59.4953V67.9803H61.7147ZM76.6119 72.3233V74.1276H71.8857V76.7143H77.2346V78.6782H69.6663V67.9803H77.2346V69.8964H71.8857V72.3233H76.6119ZM83.0307 67.7727C83.6481 67.7727 84.2122 67.8579 84.7232 68.0282C85.2341 68.1985 85.6652 68.3955 86.0165 68.619V70.8065C85.6333 70.5723 85.2235 70.3541 84.787 70.1518C84.3506 69.9496 83.8556 69.8485 83.3021 69.8485C83.0253 69.8485 82.7486 69.891 82.4718 69.9762C82.2057 70.0613 81.9822 70.1891 81.8012 70.3594C81.6309 70.5297 81.5457 70.7479 81.5457 71.014C81.5457 71.3653 81.7001 71.6314 82.0088 71.8124C82.3175 71.9934 82.6954 72.1743 83.1424 72.3553L84.4517 72.8982C85.1969 73.2175 85.7451 73.606 86.0963 74.0637C86.4476 74.5215 86.6232 75.0431 86.6232 75.6285C86.6232 76.2672 86.437 76.8314 86.0644 77.321C85.7025 77.8 85.2128 78.1779 84.5954 78.4547C83.9887 78.7314 83.3127 78.8698 82.5676 78.8698C81.9396 78.8698 81.3382 78.7634 80.7633 78.5505C80.1885 78.3376 79.6882 78.0768 79.2624 77.7681V75.5806C79.7308 75.9212 80.2471 76.2087 80.8112 76.4428C81.3754 76.677 81.9768 76.7941 82.6155 76.7941C83.0626 76.7941 83.4458 76.709 83.7651 76.5386C84.0845 76.3577 84.2442 76.0916 84.2442 75.7403C84.2442 75.4635 84.1111 75.24 83.845 75.0697C83.5895 74.8887 83.3074 74.7397 82.9987 74.6226L81.3541 73.9839C80.5238 73.6646 79.9597 73.2494 79.6616 72.7385C79.3742 72.2169 79.2305 71.6421 79.2305 71.014C79.2305 70.3647 79.4061 69.8006 79.7574 69.3215C80.1193 68.8319 80.5877 68.454 81.1625 68.1879C81.7373 67.9111 82.36 67.7727 83.0307 67.7727ZM91.0781 67.9803V72.7704L95.1496 67.9803H97.9598L93.7605 72.6587L98.4389 78.6782H95.5329L92.2436 74.3512L91.0781 75.6605V78.6782H88.8586V67.9803H91.0781ZM106.023 76.6823V78.6782H100.195V76.6823H102V69.9762H100.195V67.9803H106.023V69.9762H104.219V76.6823H106.023ZM111.356 67.9803V76.6823H116.705V78.6782H109.137V67.9803H111.356ZM121.527 67.9803V76.6823H126.876V78.6782H119.308V67.9803H121.527Z" fill="#1C2A2C"/>
<defs>
<linearGradient id="paint0_linear_331_270" x1="71.3214" y1="39.1533" x2="71.3214" y2="144.454" gradientUnits="userSpaceOnUse">
<stop stop-color="#D4C2AD"/>
<stop offset="1" stop-color="#D4C2AD" stop-opacity="0"/>
</linearGradient>
</defs>
</svg>
