<svg width="170" height="68" viewBox="0 0 170 68" fill="none" xmlns="http://www.w3.org/2000/svg">
<g opacity="0.5">
<path d="M106.464 38.7131L106.82 39.0691L84.4044 17.0098C83.943 16.5483 83.1255 16.522 82.5849 16.9439L75.0296 22.6927C74.4758 23.1147 74.4231 23.8399 74.8845 24.3014L83.8638 32.7796C84.3385 33.2411 85.1692 33.2675 85.7098 32.8455L85.723 32.8324C86.2636 32.4104 87.0943 32.4368 87.569 32.8983L98.6447 43.6181C99.1194 44.0795 99.0667 44.8047 98.5261 45.2267L86.2372 54.9839C85.6834 55.419 84.8528 55.3927 84.3649 54.9312L64.3362 35.4826C63.8747 35.0211 63.0572 34.9948 62.5034 35.4167L56.4645 40.0184C55.9107 40.4404 55.8448 41.1656 56.3063 41.627L83.8243 67.4837C83.8243 67.4837 84.8 68.3803 86.1054 67.3782L112.213 45.7673C112.74 45.3453 112.793 44.6201 112.305 44.1587L106.464 38.7131ZM113.65 27.7164L85.8944 0.475259C85.6966 0.317034 84.8396 -0.249941 83.7452 0.620299L56.4777 21.9939C55.9239 22.4158 55.8448 23.141 56.3194 23.6025L61.8969 29.1009L84.5363 50.8701C85.0242 51.3315 85.868 51.3579 86.4218 50.9228L93.0409 45.8068L93.0014 45.7673L94.0166 44.9762C94.5704 44.5542 94.6232 43.829 94.1353 43.3675L86.6064 36.1946C86.1317 35.7332 85.2879 35.7068 84.7341 36.1287L84.7209 36.1419C84.1671 36.5638 83.3364 36.5507 82.8486 36.0892L70.3751 23.9849C69.9004 23.5234 69.9664 22.8114 70.5202 22.3763L82.6772 12.9487C83.2178 12.5268 84.0353 12.5531 84.5099 13.0146L105.659 33.9795C106.147 34.441 106.978 34.4674 107.519 34.0454L113.557 29.325C114.098 28.9031 114.138 28.1779 113.65 27.7164Z" fill="#AB8A63"/>
</g>
<path d="M7.08387 24.9068C8.0182 24.9068 8.87199 25.0357 9.64523 25.2934C10.4185 25.5511 11.0709 25.8492 11.6025 26.1875V29.4979C11.0226 29.1435 10.4024 28.8133 9.74188 28.5072C9.08141 28.2011 8.33233 28.0481 7.49465 28.0481C7.07581 28.0481 6.65697 28.1125 6.23813 28.2414C5.8354 28.3703 5.49711 28.5636 5.22325 28.8213C4.96551 29.0791 4.83663 29.4093 4.83663 29.812C4.83663 30.3436 5.07022 30.7464 5.53738 31.0202C6.00455 31.2941 6.57643 31.5679 7.25301 31.8418L9.23444 32.6634C10.3621 33.1466 11.1917 33.7346 11.7233 34.4273C12.2549 35.12 12.5207 35.9094 12.5207 36.7954C12.5207 37.7619 12.2388 38.6157 11.675 39.3567C11.1273 40.0816 10.3863 40.6535 9.45192 41.0724C8.53369 41.4912 7.51076 41.7006 6.38312 41.7006C5.43267 41.7006 4.5225 41.5395 3.65261 41.2173C2.78271 40.8952 2.02558 40.5005 1.38121 40.0333V36.7229C2.09002 37.2384 2.87131 37.6733 3.7251 38.0277C4.57889 38.3821 5.48906 38.5593 6.45561 38.5593C7.13219 38.5593 7.71212 38.4304 8.1954 38.1727C8.67868 37.8988 8.92031 37.4961 8.92031 36.9645C8.92031 36.5457 8.71895 36.2074 8.31622 35.9496C7.9296 35.6758 7.5027 35.4502 7.03554 35.273L4.54667 34.3065C3.29015 33.8232 2.43636 33.195 1.98531 32.4217C1.55036 31.6324 1.33288 30.7625 1.33288 29.812C1.33288 28.8294 1.59869 27.9756 2.13029 27.2507C2.678 26.5096 3.38681 25.9378 4.2567 25.535C5.1266 25.1162 6.06899 24.9068 7.08387 24.9068ZM24.6026 38.3902V41.4106H15.7828V38.3902H18.5133V28.2414H15.7828V25.2209H24.6026V28.2414H21.8721V38.3902H24.6026ZM45.3593 25.1001V41.4106H42.0005V31.5518L37.8444 36.0946H36.8778L32.6733 31.5518V41.4106H29.3145V25.1001H30.4502L37.3611 32.3009L44.2236 25.1001H45.3593ZM56.7646 25.2209C57.5217 25.2209 58.2628 25.3498 58.9877 25.6075C59.7126 25.8653 60.365 26.2438 60.9449 26.7432C61.541 27.2426 62.0082 27.8467 62.3464 28.5555C62.7009 29.2482 62.8781 30.0456 62.8781 30.9477C62.8781 32.0431 62.5961 33.0178 62.0323 33.8715C61.4846 34.7092 60.7516 35.3697 59.8334 35.853C58.9152 36.3362 57.9164 36.5779 56.8371 36.5779C56.1122 36.5779 55.4598 36.5054 54.8798 36.3604C54.2999 36.2154 53.8166 36.0463 53.43 35.853V41.4106H50.0712V25.2209H56.7646ZM53.43 28.3622V33.1466C53.7844 33.2916 54.2113 33.4205 54.7107 33.5332C55.2262 33.6299 55.7497 33.6782 56.2813 33.6782C57.2479 33.6782 58.0131 33.4124 58.5769 32.8808C59.1568 32.3331 59.4468 31.6887 59.4468 30.9477C59.4468 30.0939 59.1246 29.4496 58.4802 29.0146C57.8359 28.5797 57.0787 28.3622 56.2088 28.3622H53.43ZM69.6197 25.2209V38.3902H77.7146V41.4106H66.261V25.2209H69.6197ZM92.1646 31.7935V34.524H85.0121V38.4385H93.107V41.4106H81.6533V25.2209H93.107V28.1206H85.0121V31.7935H92.1646ZM101.878 24.9068C102.813 24.9068 103.667 25.0357 104.44 25.2934C105.213 25.5511 105.865 25.8492 106.397 26.1875V29.4979C105.817 29.1435 105.197 28.8133 104.536 28.5072C103.876 28.2011 103.127 28.0481 102.289 28.0481C101.87 28.0481 101.452 28.1125 101.033 28.2414C100.63 28.3703 100.292 28.5636 100.018 28.8213C99.76 29.0791 99.6312 29.4093 99.6312 29.812C99.6312 30.3436 99.8648 30.7464 100.332 31.0202C100.799 31.2941 101.371 31.5679 102.048 31.8418L104.029 32.6634C105.157 33.1466 105.986 33.7346 106.518 34.4273C107.049 35.12 107.315 35.9094 107.315 36.7954C107.315 37.7619 107.033 38.6157 106.47 39.3567C105.922 40.0816 105.181 40.6535 104.246 41.0724C103.328 41.4912 102.305 41.7006 101.178 41.7006C100.227 41.7006 99.317 41.5395 98.4471 41.2173C97.5773 40.8952 96.8201 40.5005 96.1758 40.0333V36.7229C96.8846 37.2384 97.6659 37.6733 98.5196 38.0277C99.3734 38.3821 100.284 38.5593 101.25 38.5593C101.927 38.5593 102.507 38.4304 102.99 38.1727C103.473 37.8988 103.715 37.4961 103.715 36.9645C103.715 36.5457 103.513 36.2074 103.111 35.9496C102.724 35.6758 102.297 35.4502 101.83 35.273L99.3412 34.3065C98.0847 33.8232 97.2309 33.195 96.7798 32.4217C96.3449 31.6324 96.1274 30.7625 96.1274 29.812C96.1274 28.8294 96.3932 27.9756 96.9248 27.2507C97.4725 26.5096 98.1813 25.9378 99.0512 25.535C99.9211 25.1162 100.864 24.9068 101.878 24.9068ZM114.057 25.2209V32.47L120.219 25.2209H124.472L118.116 32.3009L125.196 41.4106H120.799L115.821 34.8623L114.057 36.8437V41.4106H110.698V25.2209H114.057ZM136.674 38.3902V41.4106H127.854V38.3902H130.585V28.2414H127.854V25.2209H136.674V28.2414H133.944V38.3902H136.674ZM144.745 25.2209V38.3902H152.84V41.4106H141.386V25.2209H144.745ZM160.137 25.2209V38.3902H168.232V41.4106H156.779V25.2209H160.137Z" fill="#1C2A2C"/>
</svg>
